<svg width="456" height="250" viewBox="0 0 456 250" fill="none" xmlns="http://www.w3.org/2000/svg">
<g opacity="0.5">
<path d="M3.51759 8.62069C5.8935 8.62069 7.81947 6.69089 7.81947 4.31034C7.81947 1.9298 5.8935 0 3.51759 0C1.14167 0 -0.784302 1.9298 -0.784302 4.31034C-0.784302 6.69089 1.14167 8.62069 3.51759 8.62069Z" fill="#BAD9E7"/>
<path d="M37.9327 8.62069C40.3086 8.62069 42.2346 6.69089 42.2346 4.31034C42.2346 1.9298 40.3086 0 37.9327 0C35.5568 0 33.6308 1.9298 33.6308 4.31034C33.6308 6.69089 35.5568 8.62069 37.9327 8.62069Z" fill="#BAD9E7"/>
<path d="M76.6497 4.31034C76.6497 6.69089 74.7237 8.62069 72.3478 8.62069C69.9719 8.62069 68.0459 6.69089 68.0459 4.31034C68.0459 1.9298 69.9719 0 72.3478 0C74.7237 0 76.6497 1.9298 76.6497 4.31034Z" fill="#BAD9E7"/>
<path d="M106.763 8.62069C109.139 8.62069 111.065 6.69089 111.065 4.31034C111.065 1.9298 109.139 0 106.763 0C104.387 0 102.461 1.9298 102.461 4.31034C102.461 6.69089 104.387 8.62069 106.763 8.62069Z" fill="#BAD9E7"/>
<path d="M145.48 4.31034C145.48 6.69089 143.554 8.62069 141.178 8.62069C138.802 8.62069 136.876 6.69089 136.876 4.31034C136.876 1.9298 138.802 0 141.178 0C143.554 0 145.48 1.9298 145.48 4.31034Z" fill="#BAD9E7"/>
<path d="M175.593 8.62069C177.969 8.62069 179.895 6.69089 179.895 4.31034C179.895 1.9298 177.969 0 175.593 0C173.217 0 171.291 1.9298 171.291 4.31034C171.291 6.69089 173.217 8.62069 175.593 8.62069Z" fill="#BAD9E7"/>
<path d="M214.31 4.31034C214.31 6.69089 212.384 8.62069 210.008 8.62069C207.632 8.62069 205.706 6.69089 205.706 4.31034C205.706 1.9298 207.632 0 210.008 0C212.384 0 214.31 1.9298 214.31 4.31034Z" fill="#BAD9E7"/>
<path d="M244.423 8.62069C246.799 8.62069 248.725 6.69089 248.725 4.31034C248.725 1.9298 246.799 0 244.423 0C242.047 0 240.121 1.9298 240.121 4.31034C240.121 6.69089 242.047 8.62069 244.423 8.62069Z" fill="#BAD9E7"/>
<path d="M283.14 4.31034C283.14 6.69089 281.214 8.62069 278.838 8.62069C276.462 8.62069 274.536 6.69089 274.536 4.31034C274.536 1.9298 276.462 0 278.838 0C281.214 0 283.14 1.9298 283.14 4.31034Z" fill="#BAD9E7"/>
<path d="M313.253 8.62069C315.629 8.62069 317.555 6.69089 317.555 4.31034C317.555 1.9298 315.629 0 313.253 0C310.878 0 308.952 1.9298 308.952 4.31034C308.952 6.69089 310.878 8.62069 313.253 8.62069Z" fill="#BAD9E7"/>
<path d="M351.97 4.31034C351.97 6.69089 350.044 8.62069 347.669 8.62069C345.293 8.62069 343.367 6.69089 343.367 4.31034C343.367 1.9298 345.293 0 347.669 0C350.044 0 351.97 1.9298 351.97 4.31034Z" fill="#BAD9E7"/>
<path d="M382.084 8.62069C384.46 8.62069 386.386 6.69089 386.386 4.31034C386.386 1.9298 384.46 0 382.084 0C379.708 0 377.782 1.9298 377.782 4.31034C377.782 6.69089 379.708 8.62069 382.084 8.62069Z" fill="#BAD9E7"/>
<path d="M420.801 4.31034C420.801 6.69089 418.875 8.62069 416.499 8.62069C414.123 8.62069 412.197 6.69089 412.197 4.31034C412.197 1.9298 414.123 0 416.499 0C418.875 0 420.801 1.9298 420.801 4.31034Z" fill="#BAD9E7"/>
<path d="M450.914 8.62069C453.29 8.62069 455.216 6.69089 455.216 4.31034C455.216 1.9298 453.29 0 450.914 0C448.538 0 446.612 1.9298 446.612 4.31034C446.612 6.69089 448.538 8.62069 450.914 8.62069Z" fill="#BAD9E7"/>
<path d="M7.81947 38.7931C7.81947 41.1736 5.8935 43.1034 3.51759 43.1034C1.14167 43.1034 -0.784302 41.1736 -0.784302 38.7931C-0.784302 36.4126 1.14167 34.4828 3.51759 34.4828C5.8935 34.4828 7.81947 36.4126 7.81947 38.7931Z" fill="#BAD9E7"/>
<path d="M37.9327 43.1034C40.3086 43.1034 42.2346 41.1736 42.2346 38.7931C42.2346 36.4126 40.3086 34.4828 37.9327 34.4828C35.5568 34.4828 33.6308 36.4126 33.6308 38.7931C33.6308 41.1736 35.5568 43.1034 37.9327 43.1034Z" fill="#BAD9E7"/>
<path d="M76.6497 38.7931C76.6497 41.1736 74.7237 43.1034 72.3478 43.1034C69.9719 43.1034 68.0459 41.1736 68.0459 38.7931C68.0459 36.4126 69.9719 34.4828 72.3478 34.4828C74.7237 34.4828 76.6497 36.4126 76.6497 38.7931Z" fill="#BAD9E7"/>
<path d="M106.763 43.1034C109.139 43.1034 111.065 41.1736 111.065 38.7931C111.065 36.4126 109.139 34.4828 106.763 34.4828C104.387 34.4828 102.461 36.4126 102.461 38.7931C102.461 41.1736 104.387 43.1034 106.763 43.1034Z" fill="#BAD9E7"/>
<path d="M145.48 38.7931C145.48 41.1736 143.554 43.1034 141.178 43.1034C138.802 43.1034 136.876 41.1736 136.876 38.7931C136.876 36.4126 138.802 34.4828 141.178 34.4828C143.554 34.4828 145.48 36.4126 145.48 38.7931Z" fill="#BAD9E7"/>
<path d="M175.593 43.1034C177.969 43.1034 179.895 41.1736 179.895 38.7931C179.895 36.4126 177.969 34.4828 175.593 34.4828C173.217 34.4828 171.291 36.4126 171.291 38.7931C171.291 41.1736 173.217 43.1034 175.593 43.1034Z" fill="#BAD9E7"/>
<path d="M214.31 38.7931C214.31 41.1736 212.384 43.1034 210.008 43.1034C207.632 43.1034 205.706 41.1736 205.706 38.7931C205.706 36.4126 207.632 34.4828 210.008 34.4828C212.384 34.4828 214.31 36.4126 214.31 38.7931Z" fill="#BAD9E7"/>
<path d="M244.423 43.1034C246.799 43.1034 248.725 41.1736 248.725 38.7931C248.725 36.4126 246.799 34.4828 244.423 34.4828C242.047 34.4828 240.121 36.4126 240.121 38.7931C240.121 41.1736 242.047 43.1034 244.423 43.1034Z" fill="#BAD9E7"/>
<path d="M283.14 38.7931C283.14 41.1736 281.214 43.1034 278.838 43.1034C276.462 43.1034 274.536 41.1736 274.536 38.7931C274.536 36.4126 276.462 34.4828 278.838 34.4828C281.214 34.4828 283.14 36.4126 283.14 38.7931Z" fill="#BAD9E7"/>
<path d="M313.253 43.1034C315.629 43.1034 317.555 41.1736 317.555 38.7931C317.555 36.4126 315.629 34.4828 313.253 34.4828C310.878 34.4828 308.952 36.4126 308.952 38.7931C308.952 41.1736 310.878 43.1034 313.253 43.1034Z" fill="#BAD9E7"/>
<path d="M351.97 38.7931C351.97 41.1736 350.044 43.1034 347.669 43.1034C345.293 43.1034 343.367 41.1736 343.367 38.7931C343.367 36.4126 345.293 34.4828 347.669 34.4828C350.044 34.4828 351.97 36.4126 351.97 38.7931Z" fill="#BAD9E7"/>
<path d="M382.084 43.1034C384.46 43.1034 386.386 41.1736 386.386 38.7931C386.386 36.4126 384.46 34.4828 382.084 34.4828C379.708 34.4828 377.782 36.4126 377.782 38.7931C377.782 41.1736 379.708 43.1034 382.084 43.1034Z" fill="#BAD9E7"/>
<path d="M420.801 38.7931C420.801 41.1736 418.875 43.1034 416.499 43.1034C414.123 43.1034 412.197 41.1736 412.197 38.7931C412.197 36.4126 414.123 34.4828 416.499 34.4828C418.875 34.4828 420.801 36.4126 420.801 38.7931Z" fill="#BAD9E7"/>
<path d="M450.914 43.1034C453.29 43.1034 455.216 41.1736 455.216 38.7931C455.216 36.4126 453.29 34.4828 450.914 34.4828C448.538 34.4828 446.612 36.4126 446.612 38.7931C446.612 41.1736 448.538 43.1034 450.914 43.1034Z" fill="#BAD9E7"/>
<path d="M7.81947 73.2759C7.81947 75.6564 5.8935 77.5862 3.51759 77.5862C1.14167 77.5862 -0.784302 75.6564 -0.784302 73.2759C-0.784302 70.8953 1.14167 68.9655 3.51759 68.9655C5.8935 68.9655 7.81947 70.8953 7.81947 73.2759Z" fill="#BAD9E7"/>
<path d="M37.9327 77.5862C40.3086 77.5862 42.2346 75.6564 42.2346 73.2759C42.2346 70.8953 40.3086 68.9655 37.9327 68.9655C35.5568 68.9655 33.6308 70.8953 33.6308 73.2759C33.6308 75.6564 35.5568 77.5862 37.9327 77.5862Z" fill="#BAD9E7"/>
<path d="M76.6497 73.2759C76.6497 75.6564 74.7237 77.5862 72.3478 77.5862C69.9719 77.5862 68.0459 75.6564 68.0459 73.2759C68.0459 70.8953 69.9719 68.9655 72.3478 68.9655C74.7237 68.9655 76.6497 70.8953 76.6497 73.2759Z" fill="#BAD9E7"/>
<path d="M106.763 77.5862C109.139 77.5862 111.065 75.6564 111.065 73.2759C111.065 70.8953 109.139 68.9655 106.763 68.9655C104.387 68.9655 102.461 70.8953 102.461 73.2759C102.461 75.6564 104.387 77.5862 106.763 77.5862Z" fill="#BAD9E7"/>
<path d="M145.48 73.2759C145.48 75.6564 143.554 77.5862 141.178 77.5862C138.802 77.5862 136.876 75.6564 136.876 73.2759C136.876 70.8953 138.802 68.9655 141.178 68.9655C143.554 68.9655 145.48 70.8953 145.48 73.2759Z" fill="#BAD9E7"/>
<path d="M175.593 77.5862C177.969 77.5862 179.895 75.6564 179.895 73.2759C179.895 70.8953 177.969 68.9655 175.593 68.9655C173.217 68.9655 171.291 70.8953 171.291 73.2759C171.291 75.6564 173.217 77.5862 175.593 77.5862Z" fill="#BAD9E7"/>
<path d="M214.31 73.2759C214.31 75.6564 212.384 77.5862 210.008 77.5862C207.632 77.5862 205.706 75.6564 205.706 73.2759C205.706 70.8953 207.632 68.9655 210.008 68.9655C212.384 68.9655 214.31 70.8953 214.31 73.2759Z" fill="#BAD9E7"/>
<path d="M244.423 77.5862C246.799 77.5862 248.725 75.6564 248.725 73.2759C248.725 70.8953 246.799 68.9655 244.423 68.9655C242.047 68.9655 240.121 70.8953 240.121 73.2759C240.121 75.6564 242.047 77.5862 244.423 77.5862Z" fill="#BAD9E7"/>
<path d="M283.14 73.2759C283.14 75.6564 281.214 77.5862 278.838 77.5862C276.462 77.5862 274.536 75.6564 274.536 73.2759C274.536 70.8953 276.462 68.9655 278.838 68.9655C281.214 68.9655 283.14 70.8953 283.14 73.2759Z" fill="#BAD9E7"/>
<path d="M313.253 77.5862C315.629 77.5862 317.555 75.6564 317.555 73.2759C317.555 70.8953 315.629 68.9655 313.253 68.9655C310.878 68.9655 308.952 70.8953 308.952 73.2759C308.952 75.6564 310.878 77.5862 313.253 77.5862Z" fill="#BAD9E7"/>
<path d="M351.97 73.2759C351.97 75.6564 350.044 77.5862 347.669 77.5862C345.293 77.5862 343.367 75.6564 343.367 73.2759C343.367 70.8953 345.293 68.9655 347.669 68.9655C350.044 68.9655 351.97 70.8953 351.97 73.2759Z" fill="#BAD9E7"/>
<path d="M382.084 77.5862C384.46 77.5862 386.386 75.6564 386.386 73.2759C386.386 70.8953 384.46 68.9655 382.084 68.9655C379.708 68.9655 377.782 70.8953 377.782 73.2759C377.782 75.6564 379.708 77.5862 382.084 77.5862Z" fill="#BAD9E7"/>
<path d="M420.801 73.2759C420.801 75.6564 418.875 77.5862 416.499 77.5862C414.123 77.5862 412.197 75.6564 412.197 73.2759C412.197 70.8953 414.123 68.9655 416.499 68.9655C418.875 68.9655 420.801 70.8953 420.801 73.2759Z" fill="#BAD9E7"/>
<path d="M450.914 77.5862C453.29 77.5862 455.216 75.6564 455.216 73.2759C455.216 70.8953 453.29 68.9655 450.914 68.9655C448.538 68.9655 446.612 70.8953 446.612 73.2759C446.612 75.6564 448.538 77.5862 450.914 77.5862Z" fill="#BAD9E7"/>
<path d="M7.81947 107.759C7.81947 110.139 5.8935 112.069 3.51759 112.069C1.14167 112.069 -0.784302 110.139 -0.784302 107.759C-0.784302 105.378 1.14167 103.448 3.51759 103.448C5.8935 103.448 7.81947 105.378 7.81947 107.759Z" fill="#BAD9E7"/>
<path d="M37.9327 112.069C40.3086 112.069 42.2346 110.139 42.2346 107.759C42.2346 105.378 40.3086 103.448 37.9327 103.448C35.5568 103.448 33.6308 105.378 33.6308 107.759C33.6308 110.139 35.5568 112.069 37.9327 112.069Z" fill="#BAD9E7"/>
<path d="M76.6497 107.759C76.6497 110.139 74.7237 112.069 72.3478 112.069C69.9719 112.069 68.0459 110.139 68.0459 107.759C68.0459 105.378 69.9719 103.448 72.3478 103.448C74.7237 103.448 76.6497 105.378 76.6497 107.759Z" fill="#BAD9E7"/>
<path d="M106.763 112.069C109.139 112.069 111.065 110.139 111.065 107.759C111.065 105.378 109.139 103.448 106.763 103.448C104.387 103.448 102.461 105.378 102.461 107.759C102.461 110.139 104.387 112.069 106.763 112.069Z" fill="#BAD9E7"/>
<path d="M145.48 107.759C145.48 110.139 143.554 112.069 141.178 112.069C138.802 112.069 136.876 110.139 136.876 107.759C136.876 105.378 138.802 103.448 141.178 103.448C143.554 103.448 145.48 105.378 145.48 107.759Z" fill="#BAD9E7"/>
<path d="M175.593 112.069C177.969 112.069 179.895 110.139 179.895 107.759C179.895 105.378 177.969 103.448 175.593 103.448C173.217 103.448 171.291 105.378 171.291 107.759C171.291 110.139 173.217 112.069 175.593 112.069Z" fill="#BAD9E7"/>
<path d="M214.31 107.759C214.31 110.139 212.384 112.069 210.008 112.069C207.632 112.069 205.706 110.139 205.706 107.759C205.706 105.378 207.632 103.448 210.008 103.448C212.384 103.448 214.31 105.378 214.31 107.759Z" fill="#BAD9E7"/>
<path d="M244.423 112.069C246.799 112.069 248.725 110.139 248.725 107.759C248.725 105.378 246.799 103.448 244.423 103.448C242.047 103.448 240.121 105.378 240.121 107.759C240.121 110.139 242.047 112.069 244.423 112.069Z" fill="#BAD9E7"/>
<path d="M283.14 107.759C283.14 110.139 281.214 112.069 278.838 112.069C276.462 112.069 274.536 110.139 274.536 107.759C274.536 105.378 276.462 103.448 278.838 103.448C281.214 103.448 283.14 105.378 283.14 107.759Z" fill="#BAD9E7"/>
<path d="M313.253 112.069C315.629 112.069 317.555 110.139 317.555 107.759C317.555 105.378 315.629 103.448 313.253 103.448C310.878 103.448 308.952 105.378 308.952 107.759C308.952 110.139 310.878 112.069 313.253 112.069Z" fill="#BAD9E7"/>
<path d="M351.97 107.759C351.97 110.139 350.044 112.069 347.669 112.069C345.293 112.069 343.367 110.139 343.367 107.759C343.367 105.378 345.293 103.448 347.669 103.448C350.044 103.448 351.97 105.378 351.97 107.759Z" fill="#BAD9E7"/>
<path d="M382.084 112.069C384.46 112.069 386.386 110.139 386.386 107.759C386.386 105.378 384.46 103.448 382.084 103.448C379.708 103.448 377.782 105.378 377.782 107.759C377.782 110.139 379.708 112.069 382.084 112.069Z" fill="#BAD9E7"/>
<path d="M420.801 107.759C420.801 110.139 418.875 112.069 416.499 112.069C414.123 112.069 412.197 110.139 412.197 107.759C412.197 105.378 414.123 103.448 416.499 103.448C418.875 103.448 420.801 105.378 420.801 107.759Z" fill="#BAD9E7"/>
<path d="M450.914 112.069C453.29 112.069 455.216 110.139 455.216 107.759C455.216 105.378 453.29 103.448 450.914 103.448C448.538 103.448 446.612 105.378 446.612 107.759C446.612 110.139 448.538 112.069 450.914 112.069Z" fill="#BAD9E7"/>
<path d="M7.81947 142.241C7.81947 144.622 5.8935 146.552 3.51759 146.552C1.14167 146.552 -0.784302 144.622 -0.784302 142.241C-0.784302 139.861 1.14167 137.931 3.51759 137.931C5.8935 137.931 7.81947 139.861 7.81947 142.241Z" fill="#BAD9E7"/>
<path d="M37.9327 146.552C40.3086 146.552 42.2346 144.622 42.2346 142.241C42.2346 139.861 40.3086 137.931 37.9327 137.931C35.5568 137.931 33.6308 139.861 33.6308 142.241C33.6308 144.622 35.5568 146.552 37.9327 146.552Z" fill="#BAD9E7"/>
<path d="M76.6497 142.241C76.6497 144.622 74.7237 146.552 72.3478 146.552C69.9719 146.552 68.0459 144.622 68.0459 142.241C68.0459 139.861 69.9719 137.931 72.3478 137.931C74.7237 137.931 76.6497 139.861 76.6497 142.241Z" fill="#BAD9E7"/>
<path d="M106.763 146.552C109.139 146.552 111.065 144.622 111.065 142.241C111.065 139.861 109.139 137.931 106.763 137.931C104.387 137.931 102.461 139.861 102.461 142.241C102.461 144.622 104.387 146.552 106.763 146.552Z" fill="#BAD9E7"/>
<path d="M145.48 142.241C145.48 144.622 143.554 146.552 141.178 146.552C138.802 146.552 136.876 144.622 136.876 142.241C136.876 139.861 138.802 137.931 141.178 137.931C143.554 137.931 145.48 139.861 145.48 142.241Z" fill="#BAD9E7"/>
<path d="M175.593 146.552C177.969 146.552 179.895 144.622 179.895 142.241C179.895 139.861 177.969 137.931 175.593 137.931C173.217 137.931 171.291 139.861 171.291 142.241C171.291 144.622 173.217 146.552 175.593 146.552Z" fill="#BAD9E7"/>
<path d="M214.31 142.241C214.31 144.622 212.384 146.552 210.008 146.552C207.632 146.552 205.706 144.622 205.706 142.241C205.706 139.861 207.632 137.931 210.008 137.931C212.384 137.931 214.31 139.861 214.31 142.241Z" fill="#BAD9E7"/>
<path d="M244.423 146.552C246.799 146.552 248.725 144.622 248.725 142.241C248.725 139.861 246.799 137.931 244.423 137.931C242.047 137.931 240.121 139.861 240.121 142.241C240.121 144.622 242.047 146.552 244.423 146.552Z" fill="#BAD9E7"/>
<path d="M283.14 142.241C283.14 144.622 281.214 146.552 278.838 146.552C276.462 146.552 274.536 144.622 274.536 142.241C274.536 139.861 276.462 137.931 278.838 137.931C281.214 137.931 283.14 139.861 283.14 142.241Z" fill="#BAD9E7"/>
<path d="M313.253 146.552C315.629 146.552 317.555 144.622 317.555 142.241C317.555 139.861 315.629 137.931 313.253 137.931C310.878 137.931 308.952 139.861 308.952 142.241C308.952 144.622 310.878 146.552 313.253 146.552Z" fill="#BAD9E7"/>
<path d="M351.97 142.241C351.97 144.622 350.044 146.552 347.669 146.552C345.293 146.552 343.367 144.622 343.367 142.241C343.367 139.861 345.293 137.931 347.669 137.931C350.044 137.931 351.97 139.861 351.97 142.241Z" fill="#BAD9E7"/>
<path d="M382.084 146.552C384.46 146.552 386.386 144.622 386.386 142.241C386.386 139.861 384.46 137.931 382.084 137.931C379.708 137.931 377.782 139.861 377.782 142.241C377.782 144.622 379.708 146.552 382.084 146.552Z" fill="#BAD9E7"/>
<path d="M420.801 142.241C420.801 144.622 418.875 146.552 416.499 146.552C414.123 146.552 412.197 144.622 412.197 142.241C412.197 139.861 414.123 137.931 416.499 137.931C418.875 137.931 420.801 139.861 420.801 142.241Z" fill="#BAD9E7"/>
<path d="M450.914 146.552C453.29 146.552 455.216 144.622 455.216 142.241C455.216 139.861 453.29 137.931 450.914 137.931C448.538 137.931 446.612 139.861 446.612 142.241C446.612 144.622 448.538 146.552 450.914 146.552Z" fill="#BAD9E7"/>
<path d="M7.81947 176.724C7.81947 179.105 5.8935 181.034 3.51759 181.034C1.14167 181.034 -0.784302 179.105 -0.784302 176.724C-0.784302 174.344 1.14167 172.414 3.51759 172.414C5.8935 172.414 7.81947 174.344 7.81947 176.724Z" fill="#BAD9E7"/>
<path d="M37.9327 181.034C40.3086 181.034 42.2346 179.105 42.2346 176.724C42.2346 174.344 40.3086 172.414 37.9327 172.414C35.5568 172.414 33.6308 174.344 33.6308 176.724C33.6308 179.105 35.5568 181.034 37.9327 181.034Z" fill="#BAD9E7"/>
<path d="M76.6497 176.724C76.6497 179.105 74.7237 181.034 72.3478 181.034C69.9719 181.034 68.0459 179.105 68.0459 176.724C68.0459 174.344 69.9719 172.414 72.3478 172.414C74.7237 172.414 76.6497 174.344 76.6497 176.724Z" fill="#BAD9E7"/>
<path d="M106.763 181.034C109.139 181.034 111.065 179.105 111.065 176.724C111.065 174.344 109.139 172.414 106.763 172.414C104.387 172.414 102.461 174.344 102.461 176.724C102.461 179.105 104.387 181.034 106.763 181.034Z" fill="#BAD9E7"/>
<path d="M145.48 176.724C145.48 179.105 143.554 181.034 141.178 181.034C138.802 181.034 136.876 179.105 136.876 176.724C136.876 174.344 138.802 172.414 141.178 172.414C143.554 172.414 145.48 174.344 145.48 176.724Z" fill="#BAD9E7"/>
<path d="M175.593 181.034C177.969 181.034 179.895 179.105 179.895 176.724C179.895 174.344 177.969 172.414 175.593 172.414C173.217 172.414 171.291 174.344 171.291 176.724C171.291 179.105 173.217 181.034 175.593 181.034Z" fill="#BAD9E7"/>
<path d="M214.31 176.724C214.31 179.105 212.384 181.034 210.008 181.034C207.632 181.034 205.706 179.105 205.706 176.724C205.706 174.344 207.632 172.414 210.008 172.414C212.384 172.414 214.31 174.344 214.31 176.724Z" fill="#BAD9E7"/>
<path d="M244.423 181.034C246.799 181.034 248.725 179.105 248.725 176.724C248.725 174.344 246.799 172.414 244.423 172.414C242.047 172.414 240.121 174.344 240.121 176.724C240.121 179.105 242.047 181.034 244.423 181.034Z" fill="#BAD9E7"/>
<path d="M283.14 176.724C283.14 179.105 281.214 181.034 278.838 181.034C276.462 181.034 274.536 179.105 274.536 176.724C274.536 174.344 276.462 172.414 278.838 172.414C281.214 172.414 283.14 174.344 283.14 176.724Z" fill="#BAD9E7"/>
<path d="M313.253 181.034C315.629 181.034 317.555 179.105 317.555 176.724C317.555 174.344 315.629 172.414 313.253 172.414C310.878 172.414 308.952 174.344 308.952 176.724C308.952 179.105 310.878 181.034 313.253 181.034Z" fill="#BAD9E7"/>
<path d="M351.97 176.724C351.97 179.105 350.044 181.034 347.669 181.034C345.293 181.034 343.367 179.105 343.367 176.724C343.367 174.344 345.293 172.414 347.669 172.414C350.044 172.414 351.97 174.344 351.97 176.724Z" fill="#BAD9E7"/>
<path d="M382.084 181.034C384.46 181.034 386.386 179.105 386.386 176.724C386.386 174.344 384.46 172.414 382.084 172.414C379.708 172.414 377.782 174.344 377.782 176.724C377.782 179.105 379.708 181.034 382.084 181.034Z" fill="#BAD9E7"/>
<path d="M420.801 176.724C420.801 179.105 418.875 181.034 416.499 181.034C414.123 181.034 412.197 179.105 412.197 176.724C412.197 174.344 414.123 172.414 416.499 172.414C418.875 172.414 420.801 174.344 420.801 176.724Z" fill="#BAD9E7"/>
<path d="M450.914 181.034C453.29 181.034 455.216 179.105 455.216 176.724C455.216 174.344 453.29 172.414 450.914 172.414C448.538 172.414 446.612 174.344 446.612 176.724C446.612 179.105 448.538 181.034 450.914 181.034Z" fill="#BAD9E7"/>
<path d="M7.81947 211.207C7.81947 213.587 5.8935 215.517 3.51759 215.517C1.14167 215.517 -0.784302 213.587 -0.784302 211.207C-0.784302 208.826 1.14167 206.897 3.51759 206.897C5.8935 206.897 7.81947 208.826 7.81947 211.207Z" fill="#BAD9E7"/>
<path d="M37.9327 215.517C40.3086 215.517 42.2346 213.587 42.2346 211.207C42.2346 208.826 40.3086 206.897 37.9327 206.897C35.5568 206.897 33.6308 208.826 33.6308 211.207C33.6308 213.587 35.5568 215.517 37.9327 215.517Z" fill="#BAD9E7"/>
<path d="M76.6497 211.207C76.6497 213.587 74.7237 215.517 72.3478 215.517C69.9719 215.517 68.0459 213.587 68.0459 211.207C68.0459 208.826 69.9719 206.897 72.3478 206.897C74.7237 206.897 76.6497 208.826 76.6497 211.207Z" fill="#BAD9E7"/>
<path d="M106.763 215.517C109.139 215.517 111.065 213.587 111.065 211.207C111.065 208.826 109.139 206.897 106.763 206.897C104.387 206.897 102.461 208.826 102.461 211.207C102.461 213.587 104.387 215.517 106.763 215.517Z" fill="#BAD9E7"/>
<path d="M145.48 211.207C145.48 213.587 143.554 215.517 141.178 215.517C138.802 215.517 136.876 213.587 136.876 211.207C136.876 208.826 138.802 206.897 141.178 206.897C143.554 206.897 145.48 208.826 145.48 211.207Z" fill="#BAD9E7"/>
<path d="M175.593 215.517C177.969 215.517 179.895 213.587 179.895 211.207C179.895 208.826 177.969 206.897 175.593 206.897C173.217 206.897 171.291 208.826 171.291 211.207C171.291 213.587 173.217 215.517 175.593 215.517Z" fill="#BAD9E7"/>
<path d="M214.31 211.207C214.31 213.587 212.384 215.517 210.008 215.517C207.632 215.517 205.706 213.587 205.706 211.207C205.706 208.826 207.632 206.897 210.008 206.897C212.384 206.897 214.31 208.826 214.31 211.207Z" fill="#BAD9E7"/>
<path d="M244.423 215.517C246.799 215.517 248.725 213.587 248.725 211.207C248.725 208.826 246.799 206.897 244.423 206.897C242.047 206.897 240.121 208.826 240.121 211.207C240.121 213.587 242.047 215.517 244.423 215.517Z" fill="#BAD9E7"/>
<path d="M283.14 211.207C283.14 213.587 281.214 215.517 278.838 215.517C276.462 215.517 274.536 213.587 274.536 211.207C274.536 208.826 276.462 206.897 278.838 206.897C281.214 206.897 283.14 208.826 283.14 211.207Z" fill="#BAD9E7"/>
<path d="M313.253 215.517C315.629 215.517 317.555 213.587 317.555 211.207C317.555 208.826 315.629 206.897 313.253 206.897C310.878 206.897 308.952 208.826 308.952 211.207C308.952 213.587 310.878 215.517 313.253 215.517Z" fill="#BAD9E7"/>
<path d="M351.97 211.207C351.97 213.587 350.044 215.517 347.669 215.517C345.293 215.517 343.367 213.587 343.367 211.207C343.367 208.826 345.293 206.897 347.669 206.897C350.044 206.897 351.97 208.826 351.97 211.207Z" fill="#BAD9E7"/>
<path d="M382.084 215.517C384.46 215.517 386.386 213.587 386.386 211.207C386.386 208.826 384.46 206.897 382.084 206.897C379.708 206.897 377.782 208.826 377.782 211.207C377.782 213.587 379.708 215.517 382.084 215.517Z" fill="#BAD9E7"/>
<path d="M420.801 211.207C420.801 213.587 418.875 215.517 416.499 215.517C414.123 215.517 412.197 213.587 412.197 211.207C412.197 208.826 414.123 206.897 416.499 206.897C418.875 206.897 420.801 208.826 420.801 211.207Z" fill="#BAD9E7"/>
<path d="M450.914 215.517C453.29 215.517 455.216 213.587 455.216 211.207C455.216 208.826 453.29 206.897 450.914 206.897C448.538 206.897 446.612 208.826 446.612 211.207C446.612 213.587 448.538 215.517 450.914 215.517Z" fill="#BAD9E7"/>
<path d="M7.81947 245.69C7.81947 248.07 5.8935 250 3.51759 250C1.14167 250 -0.784302 248.07 -0.784302 245.69C-0.784302 243.309 1.14167 241.379 3.51759 241.379C5.8935 241.379 7.81947 243.309 7.81947 245.69Z" fill="#BAD9E7"/>
<path d="M37.9327 250C40.3086 250 42.2346 248.07 42.2346 245.69C42.2346 243.309 40.3086 241.379 37.9327 241.379C35.5568 241.379 33.6308 243.309 33.6308 245.69C33.6308 248.07 35.5568 250 37.9327 250Z" fill="#BAD9E7"/>
<path d="M76.6497 245.69C76.6497 248.07 74.7237 250 72.3478 250C69.9719 250 68.0459 248.07 68.0459 245.69C68.0459 243.309 69.9719 241.379 72.3478 241.379C74.7237 241.379 76.6497 243.309 76.6497 245.69Z" fill="#BAD9E7"/>
<path d="M106.763 250C109.139 250 111.065 248.07 111.065 245.69C111.065 243.309 109.139 241.379 106.763 241.379C104.387 241.379 102.461 243.309 102.461 245.69C102.461 248.07 104.387 250 106.763 250Z" fill="#BAD9E7"/>
<path d="M145.48 245.69C145.48 248.07 143.554 250 141.178 250C138.802 250 136.876 248.07 136.876 245.69C136.876 243.309 138.802 241.379 141.178 241.379C143.554 241.379 145.48 243.309 145.48 245.69Z" fill="#BAD9E7"/>
<path d="M175.593 250C177.969 250 179.895 248.07 179.895 245.69C179.895 243.309 177.969 241.379 175.593 241.379C173.217 241.379 171.291 243.309 171.291 245.69C171.291 248.07 173.217 250 175.593 250Z" fill="#BAD9E7"/>
<path d="M214.31 245.69C214.31 248.07 212.384 250 210.008 250C207.632 250 205.706 248.07 205.706 245.69C205.706 243.309 207.632 241.379 210.008 241.379C212.384 241.379 214.31 243.309 214.31 245.69Z" fill="#BAD9E7"/>
<path d="M244.423 250C246.799 250 248.725 248.07 248.725 245.69C248.725 243.309 246.799 241.379 244.423 241.379C242.047 241.379 240.121 243.309 240.121 245.69C240.121 248.07 242.047 250 244.423 250Z" fill="#BAD9E7"/>
<path d="M283.14 245.69C283.14 248.07 281.214 250 278.838 250C276.462 250 274.536 248.07 274.536 245.69C274.536 243.309 276.462 241.379 278.838 241.379C281.214 241.379 283.14 243.309 283.14 245.69Z" fill="#BAD9E7"/>
<path d="M313.253 250C315.629 250 317.555 248.07 317.555 245.69C317.555 243.309 315.629 241.379 313.253 241.379C310.878 241.379 308.952 243.309 308.952 245.69C308.952 248.07 310.878 250 313.253 250Z" fill="#BAD9E7"/>
<path d="M351.97 245.69C351.97 248.07 350.044 250 347.669 250C345.293 250 343.367 248.07 343.367 245.69C343.367 243.309 345.293 241.379 347.669 241.379C350.044 241.379 351.97 243.309 351.97 245.69Z" fill="#BAD9E7"/>
<path d="M382.084 250C384.46 250 386.386 248.07 386.386 245.69C386.386 243.309 384.46 241.379 382.084 241.379C379.708 241.379 377.782 243.309 377.782 245.69C377.782 248.07 379.708 250 382.084 250Z" fill="#BAD9E7"/>
<path d="M420.801 245.69C420.801 248.07 418.875 250 416.499 250C414.123 250 412.197 248.07 412.197 245.69C412.197 243.309 414.123 241.379 416.499 241.379C418.875 241.379 420.801 243.309 420.801 245.69Z" fill="#BAD9E7"/>
<path d="M450.914 250C453.29 250 455.216 248.07 455.216 245.69C455.216 243.309 453.29 241.379 450.914 241.379C448.538 241.379 446.612 243.309 446.612 245.69C446.612 248.07 448.538 250 450.914 250Z" fill="#BAD9E7"/>
</g>
</svg>
